<svg xmlns:dc="http://purl.org/dc/elements/1.1/" xmlns:cc="http://creativecommons.org/ns#" xmlns:rdf="http://www.w3.org/1999/02/22-rdf-syntax-ns#" xmlns:svg="http://www.w3.org/2000/svg" xmlns="http://www.w3.org/2000/svg" xmlns:xlink="http://www.w3.org/1999/xlink" id="svg603846" viewBox="0 0 1024 768" height="768px" width="1024px" version="1.1">
  <metadata id="metadata603852">
    <rdf:rdf>
      <cc:work rdf:about="">
        <dc:format>image/svg+xml</dc:format>
        <dc:type rdf:resource="http://purl.org/dc/dcmitype/StillImage"></dc:type>
      </cc:work>
    </rdf:rdf>
  </metadata>
  <defs id="defs603850"></defs>
  <linearGradient spreadMethod="pad" y2="30%" x2="-10%" y1="120%" x1="30%" id="3d_gradient2-logo-33ab6070-8ab0-48c1-a611-7a2f9cbf0433">
    <stop id="stop603827" stop-opacity="1" stop-color="#ffffff" offset="0%"></stop>
    <stop id="stop603829" stop-opacity="1" stop-color="#000000" offset="100%"></stop>
  </linearGradient>
  <linearGradient gradientTransform="rotate(-30)" spreadMethod="pad" y2="30%" x2="-10%" y1="120%" x1="30%" id="3d_gradient3-logo-33ab6070-8ab0-48c1-a611-7a2f9cbf0433">
    <stop id="stop603832" stop-opacity="1" stop-color="#ffffff" offset="0%"></stop>
    <stop id="stop603834" stop-opacity="1" stop-color="#cccccc" offset="50%"></stop>
    <stop id="stop603836" stop-opacity="1" stop-color="#000000" offset="100%"></stop>
  </linearGradient>
  <g id="logo-group">
    <image xlink:href="" id="container" x="272" y="144" width="480" height="480" style="display: none;" transform="translate(0 0)"></image>
    <g id="logo-center" transform="translate(0 0)">
      <image xlink:href="" id="icon_container" x="0" y="0" style="display: none;"></image>
      <g id="slogan" style="font-style:normal;font-weight:300;font-size:32px;line-height:1;font-family:'Montserrat Light Alt1';font-variant-ligatures:none;text-align:center;text-anchor:middle" transform="translate(0 0)">
        <path id="path603854" style="font-style:normal;font-weight:300;font-size:32px;line-height:1;font-family:'Montserrat Light Alt1';font-variant-ligatures:none;text-align:center;text-anchor:middle" d="m 412.8375,-12.096 h -14.496 v 1.44 h 14.496 z m 0,-10.304 h -14.496 v 1.472 h 14.496 z m -14.496,20.928 V 0 h 14.496 v -1.472 z" stroke-width="0" stroke-linejoin="miter" stroke-miterlimit="2" fill="#747dd4" stroke="#747dd4" transform="translate(-5.684341886080802e-14 657.22832) translate(51.22885500000007 -11.152000000000001) scale(3.79) translate(-398.3415 22.4)"></path>
        <path id="path603856" style="font-style:normal;font-weight:300;font-size:32px;line-height:1;font-family:'Montserrat Light Alt1';font-variant-ligatures:none;text-align:center;text-anchor:middle" d="M 419.267,-23.744 V 0 h 1.6 v -23.744 z" stroke-width="0" stroke-linejoin="miter" stroke-miterlimit="2" fill="#747dd4" stroke="#747dd4" transform="translate(-5.684341886080802e-14 657.22832) translate(134.32650000000015 -16.245760000000004) scale(3.79) translate(-419.267 23.744)"></path>
        <path id="path603858" style="font-style:normal;font-weight:300;font-size:32px;line-height:1;font-family:'Montserrat Light Alt1';font-variant-ligatures:none;text-align:center;text-anchor:middle" d="m 437.498,-1.888 c -0.928,0.384 -1.952,0.576 -3.008,0.576 -1.728,0 -3.168,-0.448 -4.384,-1.344 -1.216,-0.896 -2.048,-2.112 -2.432,-3.648 l 14.112,-2.752 c -0.096,-1.472 -0.448,-2.784 -1.152,-3.968 -0.704,-1.184 -1.632,-2.112 -2.784,-2.784 -1.152,-0.672 -2.464,-1.024 -3.904,-1.024 -1.568,0 -2.976,0.384 -4.192,1.088 -1.248,0.736 -2.208,1.728 -2.912,3.008 -0.704,1.28 -1.024,2.752 -1.024,4.384 0,1.664 0.352,3.104 1.088,4.384 0.736,1.28 1.76,2.304 3.072,3.008 1.312,0.736 2.784,1.088 4.48,1.088 1.28,0 2.464,-0.224 3.584,-0.672 1.056,-0.448 1.984,-1.12 2.72,-2.048 l -0.928,-1.056 c -0.64,0.8 -1.408,1.376 -2.336,1.76 z m -6.944,-12.64 c 0.992,-0.576 2.112,-0.896 3.392,-0.896 1.088,0 2.112,0.256 3.008,0.736 0.896,0.48 1.6,1.152 2.176,1.952 0.544,0.832 0.896,1.76 1.056,2.752 l -12.736,2.496 c -0.064,-0.416 -0.064,-0.736 -0.064,-0.992 0,-1.312 0.256,-2.528 0.832,-3.584 0.544,-1.056 1.312,-1.888 2.336,-2.464 z" stroke-width="0" stroke-linejoin="miter" stroke-miterlimit="2" fill="#747dd4" stroke="#747dd4" transform="translate(-5.684341886080802e-14 657.22832) translate(162.94479 9.950719999999997) scale(3.79) translate(-425.818 16.832)"></path>
        <path id="path603860" style="font-style:normal;font-weight:300;font-size:32px;line-height:1;font-family:'Montserrat Light Alt1';font-variant-ligatures:none;text-align:center;text-anchor:middle" d="m 449.039,-0.96 c 1.28,0.736 2.72,1.088 4.352,1.088 1.344,0 2.56,-0.256 3.648,-0.768 1.088,-0.512 1.984,-1.28 2.688,-2.304 l -1.184,-0.864 c -0.608,0.832 -1.344,1.472 -2.24,1.888 -0.896,0.416 -1.856,0.608 -2.912,0.608 -1.312,0 -2.496,-0.288 -3.52,-0.864 -1.024,-0.576 -1.856,-1.408 -2.432,-2.496 -0.576,-1.056 -0.864,-2.272 -0.864,-3.68 0,-1.376 0.288,-2.592 0.864,-3.68 0.576,-1.056 1.408,-1.888 2.432,-2.464 1.024,-0.576 2.208,-0.896 3.52,-0.896 1.056,0 2.016,0.224 2.912,0.64 0.896,0.416 1.632,1.024 2.24,1.856 l 1.184,-0.864 c -0.704,-0.992 -1.6,-1.76 -2.688,-2.272 -1.088,-0.512 -2.304,-0.8 -3.648,-0.8 -1.632,0 -3.072,0.384 -4.352,1.088 -1.28,0.704 -2.304,1.728 -3.008,3.008 -0.736,1.28 -1.088,2.752 -1.088,4.384 0,1.632 0.352,3.104 1.088,4.384 0.704,1.28 1.728,2.304 3.008,3.008 z" stroke-width="0" stroke-linejoin="miter" stroke-miterlimit="2" fill="#747dd4" stroke="#747dd4" transform="translate(-5.684341886080802e-14 657.22832) translate(239.21853999999993 9.950719999999997) scale(3.79) translate(-444.943 16.832)"></path>
        <path id="path603862" style="font-style:normal;font-weight:300;font-size:32px;line-height:1;font-family:'Montserrat Light Alt1';font-variant-ligatures:none;text-align:center;text-anchor:middle" d="m 472.9925,-1.056 -0.672,-1.12 c -0.704,0.64 -1.568,0.928 -2.592,0.928 -1.024,0 -1.824,-0.256 -2.336,-0.832 -0.512,-0.576 -0.768,-1.408 -0.768,-2.496 v -10.752 h 5.312 v -1.376 h -5.312 v -3.648 h -1.6 v 3.648 h -3.072 v 1.376 h 3.072 v 10.912 c 0,1.44 0.384,2.56 1.184,3.36 0.768,0.8 1.888,1.184 3.36,1.184 0.64,0 1.28,-0.096 1.888,-0.288 0.608,-0.192 1.12,-0.512 1.536,-0.896 z" stroke-width="0" stroke-linejoin="miter" stroke-miterlimit="2" fill="#747dd4" stroke="#747dd4" transform="translate(-5.684341886080802e-14 657.22832) translate(307.474545 -3.3900799999999975) scale(3.79) translate(-461.9525 20.352)"></path>
        <path id="path603864" style="font-style:normal;font-weight:300;font-size:32px;line-height:1;font-family:'Montserrat Light Alt1';font-variant-ligatures:none;text-align:center;text-anchor:middle" d="m 481.3905,-15.84 c -1.088,0.64 -1.888,1.568 -2.4,2.784 v -3.648 h -1.536 V 0 h 1.6 v -8.704 c 0,-2.048 0.512,-3.68 1.568,-4.832 1.024,-1.152 2.496,-1.76 4.352,-1.76 l 0.384,0.032 v -1.568 c -1.568,0 -2.88,0.352 -3.968,0.992 z" stroke-width="0" stroke-linejoin="miter" stroke-miterlimit="2" fill="#747dd4" stroke="#747dd4" transform="translate(-5.684341886080802e-14 657.22832) translate(370.01712499999996 9.950719999999997) scale(3.79) translate(-477.4545 16.832)"></path>
        <path id="path603866" style="font-style:normal;font-weight:300;font-size:32px;line-height:1;font-family:'Montserrat Light Alt1';font-variant-ligatures:none;text-align:center;text-anchor:middle" d="m 491.882,-0.96 c 1.28,0.736 2.688,1.088 4.288,1.088 1.568,0 2.976,-0.352 4.256,-1.088 1.28,-0.704 2.272,-1.728 3.008,-3.008 0.704,-1.28 1.088,-2.752 1.088,-4.384 0,-1.6 -0.384,-3.072 -1.088,-4.352 -0.736,-1.28 -1.728,-2.304 -3.008,-3.04 -1.28,-0.704 -2.688,-1.088 -4.256,-1.088 -1.6,0 -3.008,0.384 -4.288,1.088 -1.28,0.736 -2.272,1.76 -2.976,3.04 -0.736,1.28 -1.088,2.752 -1.088,4.352 0,1.632 0.352,3.104 1.088,4.384 0.704,1.28 1.696,2.304 2.976,3.008 z m 7.712,-1.248 c -1.024,0.608 -2.144,0.896 -3.424,0.896 -1.28,0 -2.432,-0.288 -3.456,-0.896 -1.024,-0.576 -1.824,-1.408 -2.4,-2.496 -0.576,-1.056 -0.864,-2.272 -0.864,-3.648 0,-1.344 0.288,-2.56 0.864,-3.648 0.576,-1.056 1.376,-1.888 2.4,-2.496 1.024,-0.576 2.176,-0.896 3.456,-0.896 1.28,0 2.4,0.32 3.424,0.896 1.024,0.608 1.824,1.44 2.4,2.496 0.576,1.088 0.896,2.304 0.896,3.648 0,1.376 -0.32,2.592 -0.896,3.648 -0.576,1.088 -1.376,1.92 -2.4,2.496 z" stroke-width="0" stroke-linejoin="miter" stroke-miterlimit="2" fill="#747dd4" stroke="#747dd4" transform="translate(-5.684341886080802e-14 657.22832) translate(413.08478999999994 9.950719999999997) scale(3.79) translate(-487.818 16.832)"></path>
        <path id="path603868" style="font-style:normal;font-weight:300;font-size:32px;line-height:1;font-family:'Montserrat Light Alt1';font-variant-ligatures:none;text-align:center;text-anchor:middle" d="m 522.5745,-15.008 c -1.216,-1.216 -2.88,-1.824 -4.96,-1.824 -1.568,0 -2.912,0.352 -4.064,0.992 -1.152,0.672 -1.984,1.6 -2.56,2.752 v -3.616 h -1.536 V 0 h 1.6 v -8.896 c 0,-1.984 0.544,-3.552 1.696,-4.736 1.12,-1.152 2.656,-1.76 4.64,-1.76 1.696,0 3.008,0.512 3.968,1.472 0.96,0.992 1.44,2.432 1.44,4.288 V 0 h 1.6 v -9.76 c 0,-2.272 -0.608,-4.032 -1.824,-5.248 z" stroke-width="0" stroke-linejoin="miter" stroke-miterlimit="2" fill="#747dd4" stroke="#747dd4" transform="translate(-5.684341886080802e-14 657.22832) translate(498.8771249999999 9.950719999999997) scale(3.79) translate(-509.4545 16.832)"></path>
        <path id="path603870" style="font-style:normal;font-weight:300;font-size:32px;line-height:1;font-family:'Montserrat Light Alt1';font-variant-ligatures:none;text-align:center;text-anchor:middle" d="m 554.435,-20.384 c -1.6,-1.344 -3.808,-2.016 -6.624,-2.016 h -8.032 v 1.472 h 8.032 c 2.368,0 4.192,0.544 5.472,1.6 1.248,1.056 1.888,2.56 1.888,4.48 0,1.952 -0.64,3.456 -1.888,4.48 -1.28,1.056 -3.104,1.568 -5.472,1.568 h -8.032 V 0 h 1.632 v -7.328 h 6.4 c 2.816,0 5.024,-0.64 6.624,-1.984 1.6,-1.344 2.4,-3.168 2.4,-5.536 0,-2.336 -0.8,-4.192 -2.4,-5.536 z" stroke-width="0" stroke-linejoin="miter" stroke-miterlimit="2" fill="#747dd4" stroke="#747dd4" transform="translate(-5.684341886080802e-14 657.22832) translate(617.5969799999999 -11.152000000000001) scale(3.79) translate(-539.779 22.4)"></path>
        <path id="path603872" style="font-style:normal;font-weight:300;font-size:32px;line-height:1;font-family:'Montserrat Light Alt1';font-variant-ligatures:none;text-align:center;text-anchor:middle" d="m 565.2655,-15.84 c -1.088,0.64 -1.888,1.568 -2.4,2.784 v -3.648 h -1.536 V 0 h 1.6 v -8.704 c 0,-2.048 0.512,-3.68 1.568,-4.832 1.024,-1.152 2.496,-1.76 4.352,-1.76 l 0.384,0.032 v -1.568 c -1.568,0 -2.88,0.352 -3.968,0.992 z" stroke-width="0" stroke-linejoin="miter" stroke-miterlimit="2" fill="#747dd4" stroke="#747dd4" transform="translate(-5.684341886080802e-14 657.22832) translate(703.063375 9.950719999999997) scale(3.79) translate(-561.3295 16.832)"></path>
        <path id="path603874" style="font-style:normal;font-weight:300;font-size:32px;line-height:1;font-family:'Montserrat Light Alt1';font-variant-ligatures:none;text-align:center;text-anchor:middle" d="m 575.757,-0.96 c 1.28,0.736 2.688,1.088 4.288,1.088 1.568,0 2.976,-0.352 4.256,-1.088 1.28,-0.704 2.272,-1.728 3.008,-3.008 0.704,-1.28 1.088,-2.752 1.088,-4.384 0,-1.6 -0.384,-3.072 -1.088,-4.352 -0.736,-1.28 -1.728,-2.304 -3.008,-3.04 -1.28,-0.704 -2.688,-1.088 -4.256,-1.088 -1.6,0 -3.008,0.384 -4.288,1.088 -1.28,0.736 -2.272,1.76 -2.976,3.04 -0.736,1.28 -1.088,2.752 -1.088,4.352 0,1.632 0.352,3.104 1.088,4.384 0.704,1.28 1.696,2.304 2.976,3.008 z m 7.712,-1.248 c -1.024,0.608 -2.144,0.896 -3.424,0.896 -1.28,0 -2.432,-0.288 -3.456,-0.896 -1.024,-0.576 -1.824,-1.408 -2.4,-2.496 -0.576,-1.056 -0.864,-2.272 -0.864,-3.648 0,-1.344 0.288,-2.56 0.864,-3.648 0.576,-1.056 1.376,-1.888 2.4,-2.496 1.024,-0.576 2.176,-0.896 3.456,-0.896 1.28,0 2.4,0.32 3.424,0.896 1.024,0.608 1.824,1.44 2.4,2.496 0.576,1.088 0.896,2.304 0.896,3.648 0,1.376 -0.32,2.592 -0.896,3.648 -0.576,1.088 -1.376,1.92 -2.4,2.496 z" stroke-width="0" stroke-linejoin="miter" stroke-miterlimit="2" fill="#747dd4" stroke="#747dd4" transform="translate(-5.684341886080802e-14 657.22832) translate(746.1310399999996 9.950719999999997) scale(3.79) translate(-571.693 16.832)"></path>
        <path id="path603876" style="font-style:normal;font-weight:300;font-size:32px;line-height:1;font-family:'Montserrat Light Alt1';font-variant-ligatures:none;text-align:center;text-anchor:middle" d="M 599.2815,-8.928 606.3855,0 h 1.984 l -7.904,-9.952 7.2,-6.752 h -2.048 l -10.688,9.76 v -16.8 h -1.6 V 0 h 1.6 v -4.96 z" stroke-width="0" stroke-linejoin="miter" stroke-miterlimit="2" fill="#747dd4" stroke="#747dd4" transform="translate(-5.684341886080802e-14 657.22832) translate(831.9233750000001 -16.245760000000004) scale(3.79) translate(-593.3295 23.744)"></path>
        <path id="path603878" style="font-style:normal;font-weight:300;font-size:32px;line-height:1;font-family:'Montserrat Light Alt1';font-variant-ligatures:none;text-align:center;text-anchor:middle" d="M 611.8295,-16.704 V 0 h 1.6 v -16.704 z m -0.128,-4.416 c 0.256,0.256 0.544,0.352 0.928,0.352 0.352,0 0.672,-0.128 0.928,-0.384 0.256,-0.256 0.384,-0.544 0.384,-0.928 0,-0.352 -0.128,-0.64 -0.384,-0.896 -0.256,-0.256 -0.576,-0.384 -0.928,-0.384 -0.384,0 -0.672,0.128 -0.928,0.384 -0.256,0.256 -0.384,0.576 -0.384,0.928 0,0.384 0.128,0.672 0.384,0.928 z" stroke-width="0" stroke-linejoin="miter" stroke-miterlimit="2" fill="#747dd4" stroke="#747dd4" transform="translate(-5.684341886080802e-14 657.22832) translate(903.8878950000001 -14.790400000000005) scale(3.79) translate(-611.3175 23.36)"></path>
        <path id="path603880" style="font-style:normal;font-weight:300;font-size:32px;line-height:1;font-family:'Montserrat Light Alt1';font-variant-ligatures:none;text-align:center;text-anchor:middle" d="m 628.4925,-1.056 -0.672,-1.12 c -0.704,0.64 -1.568,0.928 -2.592,0.928 -1.024,0 -1.824,-0.256 -2.336,-0.832 -0.512,-0.576 -0.768,-1.408 -0.768,-2.496 v -10.752 h 5.312 v -1.376 h -5.312 v -3.648 h -1.6 v 3.648 h -3.072 v 1.376 h 3.072 v 10.912 c 0,1.44 0.384,2.56 1.184,3.36 0.768,0.8 1.888,1.184 3.36,1.184 0.64,0 1.28,-0.096 1.888,-0.288 0.608,-0.192 1.12,-0.512 1.536,-0.896 z" stroke-width="0" stroke-linejoin="miter" stroke-miterlimit="2" fill="#747dd4" stroke="#747dd4" transform="translate(-5.684341886080802e-14 657.22832) translate(930.929545 -3.3900799999999975) scale(3.79) translate(-617.4525 20.352)"></path>
      </g>
      <g id="title" style="font-style:normal;font-weight:700;font-size:72px;line-height:1;font-family:'Comfortaa Bold Alt1';font-variant-ligatures:none;text-align:center;text-anchor:middle" transform="translate(0 0)">
        <path id="path603883" style="font-style:normal;font-weight:700;font-size:72px;line-height:1;font-family:'Comfortaa Bold Alt1';font-variant-ligatures:none;text-align:center;text-anchor:middle" d="m 507.66762,-5.976 c -0.71999,-0.576 -1.584,-0.936 -2.664,-0.936 h -26.63999 c -0.64801,0 -1.152,-0.144 -1.58401,-0.576 -0.432,-0.432 -0.576,-0.936 -0.576,-1.584 V -22.68 c 0,-0.648 0.144,-1.152 0.576,-1.584 0.43201,-0.432 0.936,-0.648 1.58401,-0.648 h 18.50399 c 1.00801,0 1.872,-0.288 2.59201,-0.936 0.71999,-0.648 1.07999,-1.44 1.07999,-2.52 0,-1.008 -0.36,-1.8 -1.07999,-2.448 -0.72001,-0.648 -1.584,-1.008 -2.59201,-1.008 h -18.50399 c -0.64801,0 -1.152,-0.144 -1.58401,-0.576 -0.432,-0.432 -0.576,-0.936 -0.576,-1.584 v -13.104 c 0,-0.648 0.144,-1.152 0.576,-1.584 0.43201,-0.432 0.936,-0.648 1.58401,-0.648 h 26.63999 c 1.08,0 1.94401,-0.288 2.664,-0.936 0.648,-0.576 1.00801,-1.44 1.00801,-2.448 0,-1.008 -0.36001,-1.872 -1.00801,-2.52 -0.71999,-0.648 -1.584,-1.008 -2.664,-1.008 h -32.54399 c -1.08001,0 -2.01601,0.36 -2.66401,1.08 -0.72,0.72 -1.08,1.584 -1.08,2.664 v 48.744 c 0,1.08 0.36,1.944 1.08,2.664 0.72,0.72 1.584,1.08 2.66401,1.08 h 32.54399 c 1.08,0 1.94401,-0.288 2.664,-0.936 0.648,-0.648 1.00801,-1.512 1.00801,-2.592 0,-1.008 -0.36001,-1.8 -1.00801,-2.448 z" stroke-width="0.5" stroke-linejoin="miter" stroke-miterlimit="2" fill="#7482d4" stroke="#7482d4" transform="translate(0 380.16656) translate(154.81696000000005 -343.624) scale(8) translate(-468.71562 56.232)"></path>
        <path id="path603885" style="font-style:normal;font-weight:700;font-size:72px;line-height:1;font-family:'Comfortaa Bold Alt1';font-variant-ligatures:none;text-align:center;text-anchor:middle" d="m 558.01138,-19.656 c 0,-3.744 -0.86401,-7.128 -2.59201,-10.152 -1.728,-3.024 -4.17599,-5.472 -7.19999,-7.2 -3.024,-1.728 -6.40801,-2.664 -10.08001,-2.664 h -0.288 -0.144 -15.91199 c -1.00801,0 -1.80001,0.36 -2.448,1.008 -0.72,0.72 -1.008,1.512 -1.008,2.448 v 15.336 1.224 32.832 c 0,1.152 0.288,2.016 1.008,2.664 0.64799,0.72 1.51199,1.008 2.664,1.008 1.00799,0 1.87199,-0.288 2.592,-1.008 0.72,-0.648 1.07999,-1.512 1.07999,-2.664 v -19.44 c 1.65601,2.088 3.672,3.672 6.12,4.824 2.37601,1.152 4.96801,1.728 7.77601,1.728 3.456,0 6.552,-0.864 9.36,-2.592 2.808,-1.728 5.03999,-4.104 6.62399,-7.128 1.584,-3.024 2.44801,-6.48 2.44801,-10.224 z m -7.05601,0 c 0,2.592 -0.576,4.896 -1.72799,6.912 -1.15201,2.016 -2.66401,3.672 -4.60801,4.824 -1.94399,1.152 -4.104,1.728 -6.48,1.728 -2.448,0 -4.60799,-0.576 -6.552,-1.728 -1.944,-1.152 -3.45599,-2.808 -4.536,-4.824 -1.152,-2.016 -1.656,-4.32 -1.656,-6.912 0,-2.52 0.504,-4.824 1.656,-6.912 1.08001,-2.016 2.592,-3.672 4.536,-4.824 1.94401,-1.152 4.104,-1.8 6.552,-1.8 2.376,0 4.53601,0.648 6.48,1.8 1.944,1.152 3.456,2.808 4.60801,4.824 1.15199,2.088 1.72799,4.392 1.72799,6.912 z" stroke-width="0.5" stroke-linejoin="miter" stroke-miterlimit="2" fill="#7482d4" stroke="#7482d4" transform="translate(0 380.16656) translate(551.8070399999999 -211.14399999999998) scale(8) translate(-518.33938 39.672)"></path>
      </g>
      <image xlink:href="" id="icon" x="0" y="0" style="display: none;"></image>
    </g>
  </g>
</svg>